<svg width="24" height="20" viewBox="0 0 24 20" fill="none" xmlns="http://www.w3.org/2000/svg">
<path d="M0.103579 13.1818V19H0.938806V14.7869H0.992784L2.70869 18.9915H3.40187L5.11778 14.7898H5.17176V19H6.00699V13.1818H4.94165L3.08937 17.7045H3.02119L1.16892 13.1818H0.103579Z" />
<path d="M7.04327 19H10.7251V18.2443H7.92111V16.4631H10.5007V15.7102H7.92111V13.9375H10.691V13.1818H7.04327V19Z" />
<path d="M16.3196 13.1818H15.4503V17.4545H15.3963L12.4361 13.1818H11.6236V19H12.5014V14.733H12.5554L15.5128 19H16.3196V13.1818Z" />
<path d="M18.238 13.1818H17.3601V19H18.238V13.1818Z" />
<path d="M23.0207 13.1818V17.017C23.0207 17.8324 22.3701 18.2898 21.5861 18.2898C20.8076 18.2898 20.1542 17.8324 20.1542 17.017V13.1818H19.2764V17.0312C19.2764 18.3438 20.2991 19.0966 21.5861 19.0966C22.873 19.0966 23.8986 18.3438 23.8986 17.0312V13.1818H23.0207Z" />
<path d="M0 0H24V2H0V0Z" />
<path d="M0 6H16V8H0V6Z" />
</svg>
