<svg viewBox="0 0 128 128" xmlns="http://www.w3.org/2000/svg"><path d="m256 13.9286c-137.6668 0-247.8 110.1338-247.8 247.8027 0 137.6621 110.1334 247.7959 247.8 247.7959s247.8-110.1338 247.8-247.7959c0-137.6689-110.1334-247.8027-247.8-247.8027zm188.1444 236.3252c-9.1776 13.7675-25.2387 18.3613-45.8888 18.3613-2.2943 16.0576-9.1776 32.1221-22.9444 50.4766-27.5334 32.122-59.6555 55.0634-98.6613 66.5341h-2.2943c-39.0055 9.1807-80.3056 9.1807-121.6054-4.5869-34.4168-11.4707-61.9502-34.4189-84.8946-64.2441 22.9444 18.3545 41.3 25.2383 59.6555 27.5351v-2.2968c32.1225 2.2968 57.3612-6.8838 78.0113-27.5352v-2.29c-11.4724 2.29-20.65-2.2969-25.2392-9.1807-2.2943-6.8838 0-11.4707 4.5891-13.7676a17.8978 17.8978 0 0 1 9.1777-9.1738c-20.65 2.29-36.7112-6.8838-45.8888-22.9483 6.8833-6.8837 16.061-9.1738 25.2387-9.1738-25.2387-6.8838-39.0055-20.6513-41.3-39.0058 6.8834 0 13.7668-2.2969 20.65-2.2969-18.3558-11.4707-29.8277-27.5352-29.8277-45.89a269.14 269.14 0 0 1 55.0664 20.6514c16.0611 6.8838 32.1221 13.7676 43.5945 22.9414 11.472 4.5938 18.3554 11.4776 27.5335 20.6514v-2.29c6.8833-18.3613 13.7667-36.7158 27.533-55.07 4.589-6.8838 9.1781-16.0576 18.3557-22.9414 2.2944-4.5937 6.8834-6.8838 11.472-11.4707 2.2948 2.29 0 4.5869-4.5886 11.4707 11.472-9.1806 20.65-13.7676 29.8278-13.7676 2.2943 2.2969-2.2943 6.8838-11.4724 11.4707 6.8833-2.2968 16.0614-4.5869 25.2391-4.5869 2.2943 0 4.5886 2.29 2.2943 4.5869-2.2943 4.587-11.472 9.1807-29.8278 11.4707v2.2969c18.3558 0 36.7112 4.5869 50.4779 18.3545a112.0812 112.0812 0 0 1 29.8277 52.7735c13.7668 4.5869 27.5335 4.5869 43.5945 0-4.589 11.4707-16.061 16.0576-39.0054 18.3544v2.2969c20.65 4.5869 34.4164 4.5869 41.3 2.29z" fill-rule="evenodd"/></svg>