<svg fill="none" viewBox="0 0 725 256" xmlns="http://www.w3.org/2000/svg"><path d="m61.5755 41.3123c1.6344 5.4823 2.0189 31.0662.7691 43.8581-.6729 6.8288-2.8841 20.1976-3.2687 22.6986-.2884 2.501-.9614 6.54-1.4421 8.945-.4807 2.404-1.1536 6.059-1.5382 8.175-.2884 2.116-.9614 5.386-1.4421 7.214-.3845 1.827-1.2498 6.444-1.9228 10.098-.5768 3.751-1.4421 8.464-1.9228 10.58-.3845 2.116-1.2498 6.925-1.9227 10.58-1.5382 9.33-3.0764 14.908-4.7108 16.158-1.0575.866-2.1151.193-5.2877-3.27-4.2301-4.713-7.3065-12.022-9.2293-21.736-1.3459-6.637-.7691-30.874.9614-41.647 1.6343-10.195 3.8455-33.6625 3.8455-40.3952-.0961-3.4624-.6729-10.5798-1.5382-15.8697-.7691-5.2899-1.5382-10.4836-1.6344-11.4454-.1922-1.9236 2.3074-2.693 17.5935-5.2899 11.5366-1.9236 11.7289-1.9236 12.6903 1.3465zm40.4875-41.31219577c6.805-.00000119 13.338.77927877 19.601 2.33784577 6.263 1.55857 11.753 3.99385 16.47 7.30581 4.716 3.31194 8.485 7.61754 11.308 12.91664 2.822 5.2992 4.233 11.6893 4.233 19.1705 0 3.9743-.657 8.0461-1.972 12.2153-1.314 4.1691-3.479 8.3383-6.495 12.5075-3.015 4.1692-7.016 8.2994-12.004 12.3907-4.987 4.0912-11.153 8.0071-18.499 11.7477 2.727 2.5536 8.664 4.2917 18.499 14.8599 7.287 7.83 10.822 14.88 13.981 23.474 1.554 4.228 2.331 8.45 4.518 15.417 1.891 6.022 4.118 9.776 9.219 13.642 2.322 1.761 5.79 4.504 9.61 5.794 5.447 1.84 11.479 1.86 14.799 1.554 5.649-.519 8.934-3.303 9.174-3.345.211-.037-4.226 6.865-15.984 10.888-3.343.8-6.511 1.532-9.068 1.62-2.939 0-5.372-.117-9.55-.427-5.601-.416-14.722-2.482-19.984-4.871-4.52-2.535-8.888-5.375-12.864-13.527-1.901-3.898-3.245-11.207-5.391-15.716-2.145-4.509-9.336-14.535-13.975-18.821-4.64-4.286-9.1865-7.517-16.7567-11.008-.7009-.323-3.1755-1.683-9.0952-3.249-4.999-1.323-5.1778-1.371-14.0121-2.566.5461-.206 11.7327-.371 15.9189-1.258 5.343-1.134 9.681-4.2961 14.1442-6.9669 4.9489-2.9613 9.2589-6.3512 12.9319-10.1697s6.572-8.0851 8.699-12.7998c2.126-4.7147 3.189-9.9164 3.189-15.6052 0-6.8577-1.392-12.8582-4.175-18.0015-2.784-5.1433-6.399-9.4294-10.845-12.8582-4.445-3.4289-9.4906-6.0005-15.1351-7.7149-5.6444-1.7145-11.3274-2.5717-17.0492-2.5717-4.6392 0-9.0852.2338-13.3378.7014-8.9992.7335-18.6643 1.6687-28.9953 2.8054-2.0103.2338-3.982.3702-5.915.4091-1.9331.039-3.9047.0585-5.9151.0585-2.9382 0-6.2436-.0779-9.9164-.2338-3.67269-.1559-7.48074-.4676-11.42409665-.9351l29.34319665-18.702912c6.0311.857212 11.7141 1.441682 17.0493 1.753402 5.3351.31171 9.7424.46757 13.2218.46757 3.866 0 7.5968-.13639 11.1922-.40914s7.1328-.58446 10.6123-.93514c3.4794-.350678 6.9202-.662391 10.3223-.935142s6.8429-.40913317 10.3219-.40913377zm80.757 255.99989577c.626 0 1.252-.158 1.877-.476.626-.317 1.148-.758 1.565-1.322s.712-1.216.886-1.957c.174-.74.157-1.534-.052-2.38-.348-1.34-.521-3.032-.521-5.077s.382-4.513 1.147-7.404 2.068-6.311 3.911-10.26c1.842-3.949 4.467-8.498 7.874-13.645 3.406-5.148 8.03-11.089 13.87-17.823 5.84-6.735 12.341-13.945 19.502-21.631 7.162-7.687 14.67-15.69 22.527-24.011 7.856-8.321 15.504-16.607 22.944-24.857 5.84-6.417 10.602-12.482 14.287-18.194 3.685-5.711 6.588-11.0002 8.709-15.8658 2.12-4.8657 3.58-9.3082 4.38-13.3276.799-4.0195 1.199-7.5806 1.199-10.6833 0-1.3398-.087-2.8912-.261-4.6541-.173-1.7629-.538-3.4201-1.095-4.9714-.556-1.5514-1.39-2.8559-2.503-3.9137-1.112-1.0577-2.607-1.5866-4.484-1.5866-2.642 0-5.267.6875-7.874 2.0626s-5.11 3.1027-7.509 5.183c-2.399 2.0802-4.658 4.3191-6.779 6.7167-2.12 2.3975-3.98 4.5835-5.579 6.558 1.947-.3526 3.685-.2468 5.214.3173 1.53.5642 2.781 1.5338 3.755 2.9088.973 1.3751 1.72 3.1028 2.242 5.183.521 2.0803.782 4.4249.782 7.034 0 2.8912-.678 6.1879-2.034 9.89-1.355 3.7021-3.233 7.7041-5.631 12.0051-2.399 4.302-5.197 8.833-8.396 13.592-3.198 4.76-6.674 9.608-10.429 14.544-2.155-9.801-4.71-18.88-7.665-27.237-2.955-8.356-5.944-15.8129-8.969-22.371-3.024-6.558-5.84-12.1464-8.447-16.7653-2.607-4.6188-4.641-8.127-6.101-10.5246-1.53-2.3975-3.181-4.1252-4.954-5.1829-1.773-1.0578-3.667-1.5867-5.684-1.5867-2.92 0-5.892.7229-8.916 2.1684-3.025 1.4456-5.962 3.2262-8.813 5.3417s-5.562 4.4073-8.135 6.8753c-2.572 2.4681-4.866 4.6894-6.883 6.6639 1.738-.9873 3.442-1.7806 5.11-2.38 1.669-.5994 3.303-.8991 4.902-.8991 3.894 0 7.544 1.5866 10.95 4.7599 3.407 3.1732 6.571 7.3514 9.491 12.5343 2.92 5.183 5.579 11.0891 7.978 17.7171 2.399 6.629 4.519 13.381 6.362 20.256 1.842 6.875 3.441 13.61 4.797 20.203s2.416 12.429 3.181 17.506c-6.118 7.263-12.063 14.191-17.834 20.785-5.77 6.593-10.915 12.428-15.435 17.505-3.684 4.161-7.022 8.55-10.011 13.169-2.99 4.619-5.528 9.097-7.613 13.434-2.086 4.336-3.616 8.356-4.589 12.058-.974 3.702-1.217 6.646-.73 8.832.486 1.834 1.147 3.156 1.981 3.967.835.811 1.669 1.216 2.503 1.216zm198.695-84.911c5.098 0 10.053-.666 14.867-1.997 4.814-1.332 9.504-3.101 14.071-5.309 4.566-2.207 9.008-4.713 13.327-7.516 4.318-2.804 8.53-5.677 12.636-8.62 1.416-1.052 3.292-2.769 5.629-5.151 2.336-2.383 4.637-5.362 6.902-8.936s4.212-7.744 5.841-12.51c1.628-4.765 2.442-10.057 2.442-15.873 0-6.8686-1.221-13.2461-3.664-19.133-2.442-5.887-5.876-10.9855-10.3-15.2955-4.425-4.3101-9.699-7.6741-15.823-10.0919-6.124-2.4179-12.867-3.6268-20.229-3.6268-5.947 0-12.106.7358-18.478 2.2076-6.371 1.4717-12.566 3.6093-18.583 6.4126-6.018 2.8033-11.717 6.2198-17.097 10.2495-5.38 4.0298-10.07 8.5676-14.07 13.6136-4 5.0459-7.186 10.5649-9.558 16.5569-2.371 5.992-3.557 12.387-3.557 19.185 0 7.709 1.469 14.437 4.407 20.184s6.938 10.512 12 14.297c5.061 3.784 10.973 6.623 17.734 8.515 6.76 1.892 13.928 2.838 21.503 2.838zm16.33-12.673c-6.254 0-12.144-1.183-17.669-3.549-5.525-2.365-10.355-5.635-14.49-9.81s-7.384-9.063-9.746-14.664c-2.363-5.601-3.545-11.637-3.545-18.108 0-2.852.261-5.897.782-9.132.521-3.2354 1.321-6.436 2.398-9.6018 1.077-3.1659 2.432-6.1925 4.065-9.08 1.633-2.8876 3.579-5.4272 5.838-7.6189 2.258-2.1918 4.847-3.9312 7.766-5.2184s6.15-1.9308 9.694-1.9308c6.255 0 12.127 1.3219 17.617 3.9659s10.285 6.1926 14.386 10.6456c4.1 4.453 7.331 9.6019 9.694 15.4465 2.363 5.8449 3.544 11.9329 3.544 18.2649 0 7.236-.851 13.411-2.554 18.525-1.702 5.114-3.961 9.289-6.775 12.524-2.815 3.235-6.046 5.601-9.695 7.097-3.648 1.496-7.418 2.244-11.31 2.244zm120.053 13.858c4.019.282 8.337-.158 12.954-1.321 4.618-1.163 9.447-2.942 14.487-5.338 5.041-2.396 10.24-5.356 15.597-8.879 5.358-3.523 10.786-7.505 16.285-11.944-5.287 3.382-10.486 5.814-15.597 7.293-5.111 1.48-9.887 2.22-14.329 2.22-4.37 0-8.354-.617-11.949-1.85s-6.715-2.871-9.358-4.915c-2.644-2.043-4.706-4.439-6.186-7.187-1.481-2.749-2.256-5.673-2.327-8.774 0-9.442.036-19.026.106-28.75.071-9.7244.176-19.6249.317-29.7017 5.076-.2818 10.205-.8456 15.386-1.6912 5.182-.8456 10.24-2.0964 15.175-3.7523 4.934-1.656 9.675-3.7876 14.222-6.3949s8.724-5.8135 12.531-9.6187c-1.339.6342-2.978 1.1979-4.917 1.6912s-4.036.8985-6.292 1.2156-4.6.5813-7.032.7927-4.811.3523-7.138.4228c-5.428.2819-11.174.3523-17.236.2114l-5.129-.0015c-1.175-.0049-2.497-.022-3.965-.0513-1.763-.0353-3.56-.0881-5.393-.1586l.423-35.5152c-1.481 1.1979-3.455 2.6425-5.922 4.3337-2.115 1.4093-4.864 3.1358-8.248 5.1793s-7.543 4.2985-12.478 6.7648c0 7.0467-.529 12.6488-1.586 16.8063-1.058 4.1575-2.221 7.3638-3.49 9.6187-1.48 2.6073-3.172 4.4042-5.076 5.3907-1.903 1.3389-3.877 2.6778-5.921 4.0166-1.763 1.198-3.719 2.5016-5.869 3.9109-2.15 1.4094-4.283 2.7835-6.398 4.1224 2.609-1.3389 5.252-2.4488 7.931-3.3296s5.27-1.5855 7.772-2.114c2.503-.5285 4.829-.8985 6.98-1.1099 2.15-.2114 3.965-.3875 5.445-.5285-.141 9.3016-.282 17.4405-.422 24.4168-.141 6.9765-.283 12.8245-.424 17.5465-.211 5.496-.352 10.253-.422 14.269-.212 7.47.352 13.847 1.691 19.132 1.34 5.285 3.243 9.619 5.711 13.001 2.467 3.382 5.41 5.919 8.829 7.61 3.42 1.692 7.173 2.678 11.262 2.96zm162.821-1.331c2.314.175 4.207.193 5.68.052 2.664-.14 5.61-.737 8.835-1.792 3.226-1.054 6.556-2.46 9.992-4.217s6.854-3.848 10.255-6.273c3.401-2.424 6.574-5.113 9.519-8.065-3.155 1.125-6.206 2.021-9.151 2.689-2.945.667-5.714 1.001-8.309 1.001-4.347 0-7.555-.914-9.624-2.741-2.068-1.827-3.453-4.217-4.155-7.169-.701-2.952-.981-6.29-.841-10.015s.21-7.521.21-11.386c0-3.796.035-7.697.106-11.703.07-4.006.175-8.451.315-13.3362.14-4.8847.316-10.4196.526-16.6046s.456-13.3189.736-21.4015c-6.801-1.1949-12.867-1.9856-18.196-2.3721-5.329-.3866-9.957-.5799-13.884-.5799-3.786 0-7.923.4218-12.411 1.2652-4.487.8434-9.098 2.0382-13.831 3.5845-4.733 1.5462-9.484 3.3736-14.252 5.4821s-9.273 4.4631-13.515 7.0636c-4.243 2.6005-8.152 5.3767-11.728 8.3287-3.576 2.9519-6.521 6.0092-8.835 9.172-1.262 1.6868-2.472 3.8305-3.629 6.431-1.157 2.6002-2.174 5.5172-3.05 8.7502-.877 3.233-1.595 6.66-2.156 10.279-.561 3.62-.842 7.292-.842 11.017 0 4.99.737 10.016 2.209 15.076 1.473 5.061 3.681 9.629 6.626 13.706 2.945 4.076 6.592 7.397 10.939 9.962 4.348 2.566 9.396 3.848 15.146 3.848 4.488 0 9.046-.79 13.673-2.372 4.628-1.581 9.204-3.725 13.726-6.431 4.523-2.706 8.923-5.798 13.201-9.277 4.277-3.479 8.344-7.116 12.2-10.912v12.546c0 4.147.772 7.345 2.314 9.594 1.543 2.249 3.384 3.901 5.522 4.955 2.139 1.054 4.365 1.669 6.679 1.845zm-48.232-20.131c-4.809 0-9.078-1.111-12.807-3.334-3.729-2.222-6.865-5.112-9.409-8.668s-4.478-7.573-5.802-12.052c-1.324-4.48-1.986-8.942-1.986-13.387 0-4.65.54-9.163 1.62-13.54 1.08-4.3766 2.387-8.3088 3.92-11.7964 1.534-3.4876 3.137-6.4111 4.809-8.7704 1.673-2.3592 3.137-3.8466 4.391-4.4621.697-.4103 1.708-.7693 3.032-1.077 1.324-.3078 2.858-.5642 4.6-.7694s3.677-.3761 5.802-.5129c2.126-.1367 4.374-.2051 6.743-.2051 4.322 0 8.852.2222 13.591.6667s9.2 1.2139 13.382 2.308c-.07 5.5392-.122 10.6168-.157 15.2328-.035 4.6159-.052 8.8729-.052 12.7708v19.9c-1.046 3.898-2.422 7.522-4.13 10.873-1.707 3.351-3.85 6.275-6.429 8.771s-5.611 4.462-9.096 5.898c-3.484 1.436-7.492 2.154-12.022 2.154z"/></svg>