<svg height="240" viewBox="0 0 512 240" width="512" xmlns="http://www.w3.org/2000/svg"><path d="m43.4568 85.7545c1.1534 3.8158 1.4248 21.6225.5428 30.5265-.475 4.753-2.0355 14.058-2.3069 15.799-.2036 1.74-.6785 4.552-1.0178 6.226-.3392 1.673-.8142 4.217-1.0856 5.69-.2035 1.473-.6785 3.749-1.0177 5.021-.2714 1.272-.8821 4.485-1.357 7.029-.4071 2.611-1.0178 5.891-1.357 7.364-.2714 1.472-.8821 4.82-1.357 7.364-1.0856 6.493-2.1712 10.376-3.3247 11.246-.7463.603-1.4927.134-3.7317-2.276-2.9854-3.28-5.1566-8.368-6.5136-15.129-.9499-4.619-.5428-21.489.6785-28.987 1.1535-7.096 2.714-23.431 2.714-28.117-.0678-2.41-.4749-7.364-1.0856-11.0454-.5428-3.682-1.0856-7.297-1.1534-7.9664-.1357-1.3389 1.6284-1.8744 12.4165-3.6819 8.142-1.3389 8.2777-1.3389 8.9562.9372zm28.5742-28.7545c4.8021 0 9.4132.5424 13.8332 1.6272 4.4201 1.0848 8.2945 2.7799 11.6232 5.0851 3.3286 2.3052 5.9886 5.302 7.9806 8.9903 1.992 3.6884 2.988 8.1361 2.988 13.3432 0 2.7663-.464 5.6004-1.392 8.5022-.927 2.9019-2.455 5.804-4.584 8.706-2.128 2.902-4.9517 5.776-8.4714 8.624-3.5196 2.848-7.8715 5.573-13.0556 8.177 1.9243 1.777 6.1144 2.987 13.0556 10.343 5.1423 5.449 7.6374 10.356 9.8674 16.338 1.096 2.943 1.645 5.882 3.188 10.731 1.335 4.192 2.906 6.804 6.506 9.495 1.639 1.226 4.086 3.135 6.783 4.033 3.844 1.28 8.101 1.294 10.444 1.082 3.987-.362 6.305-2.299 6.474-2.329.149-.026-2.982 4.779-11.281 7.578-2.358.557-4.594 1.067-6.399 1.128-2.075 0-3.791-.081-6.74-.297-3.953-.289-10.39-1.728-14.1037-3.39-3.1899-1.765-6.2725-3.741-9.0784-9.415-1.3416-2.713-2.2904-7.801-3.8047-10.939-1.5142-3.138-6.5892-10.117-9.8633-13.1s-6.483-5.233-11.8257-7.662c-.4946-.225-2.241-1.171-6.4189-2.262-3.528-.921-3.6542-.954-9.889-1.785.3854-.144 8.2804-.258 11.2347-.876 3.7708-.789 6.8324-2.99 9.9823-4.849 3.4924-2.062 6.5346-4.421 9.1266-7.079 2.5921-2.658 4.6384-5.627 6.1391-8.909 1.5006-3.281 2.2509-6.902 2.2509-10.8615 0-4.7731-.9822-8.9497-2.9467-12.5295-1.9645-3.5799-4.5156-6.5631-7.6533-8.9497s-6.6983-4.1765-10.6819-5.3698c-3.9835-1.1933-7.9943-1.79-12.0324-1.79-3.2742 0-6.4119.1627-9.4132.4882-6.3511.5106-13.1722 1.1615-20.4633 1.9526-1.4188.1628-2.8103.2577-4.1745.2848-1.3643.0271-2.7558.0407-4.1746.0407-2.0736 0-4.4064-.0543-6.99844-.1627-2.59202-.1085-5.27954-.3255-8.06256-.6509l20.7089-13.0178c4.2564.5967 8.2672 1.0035 12.0325 1.2205 3.7652.2169 6.8757.3254 9.3313.3254 2.7284 0 5.3614-.0949 7.8988-.2848 2.5375-.1898 5.034-.4068 7.4896-.6508 2.4556-.2441 4.8839-.4611 7.285-.6509 2.401-.1899 4.8293-.2848 7.2849-.2848zm57.45 180c.441 0 .883-.111 1.324-.333.442-.223.81-.531 1.104-.926s.503-.852.625-1.371c.123-.518.111-1.074-.036-1.666-.246-.938-.368-2.124-.368-3.556s.269-3.16.809-5.185c.54-2.024 1.459-4.42 2.759-7.185s3.152-5.95 5.556-9.555c2.403-3.605 5.666-7.766 9.786-12.482 4.121-4.716 8.707-9.765 13.76-15.147 5.053-5.383 10.351-10.988 15.894-16.815s10.939-11.629 16.188-17.407c4.121-4.494 7.481-8.741 10.081-12.741s4.648-7.703 6.144-11.111c1.496-3.407 2.526-6.518 3.09-9.333s.846-5.308.846-7.481c0-.938-.061-2.025-.183-3.259-.123-1.235-.381-2.3954-.773-3.4818-.393-1.0864-.981-2-1.766-2.7407s-1.84-1.1111-3.164-1.1111c-1.864 0-3.716.4815-5.556 1.4444-1.839.963-3.605 2.1728-5.297 3.6296-1.693 1.4566-3.287 3.0246-4.783 4.7036s-2.809 3.21-3.937 4.593c1.374-.247 2.6-.173 3.679.222s1.962 1.074 2.649 2.037 1.214 2.173 1.582 3.629c.368 1.457.552 3.099.552 4.926 0 2.025-.478 4.333-1.435 6.926-.956 2.593-2.281 5.395-3.973 8.407-1.693 3.013-3.667 6.185-5.924 9.519-2.256 3.333-4.709 6.728-7.358 10.185-1.521-6.864-3.323-13.222-5.408-19.074s-4.194-11.074-6.328-15.667c-2.134-4.592-4.121-8.506-5.96-11.74-1.84-3.235-3.275-5.691-4.305-7.37-1.079-1.6793-2.244-2.8892-3.495-3.6299s-2.588-1.1111-4.01-1.1111c-2.061 0-4.158.5062-6.292 1.5185s-4.206 2.2592-6.217 3.7405c-2.012 1.482-3.925 3.087-5.74 4.815s-3.434 3.284-4.856 4.667c1.226-.692 2.428-1.247 3.605-1.667 1.178-.42 2.33-.63 3.459-.63 2.747 0 5.322 1.111 7.726 3.334 2.404 2.222 4.636 5.148 6.696 8.777 2.06 3.63 3.936 7.765 5.629 12.407 1.692 4.642 3.188 9.371 4.488 14.185 1.3 4.815 2.429 9.531 3.385 14.148.957 4.617 1.705 8.704 2.244 12.259-4.316 5.087-8.511 9.938-12.582 14.556-4.072 4.617-7.702 8.703-10.89 12.259-2.6 2.913-4.955 5.987-7.064 9.222-2.11 3.234-3.9 6.37-5.372 9.407-1.471 3.037-2.551 5.852-3.237 8.444-.687 2.593-.859 4.655-.515 6.185.343 1.284.809 2.21 1.398 2.778.588.568 1.177.852 1.766.852zm138.518-59.381c3.564 0 7.028-.466 10.393-1.398 3.365-.931 6.644-2.169 9.836-3.714 3.192-1.544 6.297-3.297 9.316-5.258s5.964-3.971 8.834-6.03c.99-.736 2.301-1.937 3.934-3.604s3.242-3.751 4.825-6.251c1.584-2.501 2.945-5.418 4.083-8.752s1.708-7.035 1.708-11.105c0-4.804-.854-9.266-2.561-13.384-1.708-4.119-4.108-7.686-7.201-10.701s-6.78-5.369-11.061-7.06c-4.281-1.6915-8.994-2.5373-14.141-2.5373-4.157 0-8.463.5148-12.917 1.5444-4.454 1.0299-8.784 2.5249-12.99 4.4859-4.207 1.961-8.191 4.352-11.952 7.171s-7.04 5.993-9.836 9.523-5.023 7.391-6.681 11.583-2.487 8.666-2.487 13.422c0 5.393 1.027 10.1 3.081 14.12s4.85 7.354 8.388 10.002c3.539 2.647 7.671 4.633 12.397 5.957 4.727 1.324 9.737 1.986 15.032 1.986zm11.917-8.351c-4.44 0-8.621-.841-12.543-2.524-3.922-1.682-7.351-4.008-10.286-6.977s-5.242-6.445-6.919-10.429c-1.677-3.983-2.516-8.276-2.516-12.878 0-2.029.185-4.194.555-6.495s.937-4.577 1.702-6.829c.765-2.251 1.727-4.404 2.886-6.458 1.159-2.053 2.541-3.859 4.144-5.418s3.441-2.796 5.513-3.712c2.072-.915 4.366-1.373 6.882-1.373 4.44 0 8.608.94 12.506 2.821 3.897 1.88 7.301 4.404 10.211 7.571 2.911 3.167 5.205 6.829 6.882 10.986 1.678 4.156 2.516 8.486 2.516 12.989 0 5.147-.604 9.538-1.813 13.176-1.208 3.637-2.812 6.606-4.81 8.907s-4.292 3.983-6.882 5.047c-2.589 1.064-5.266 1.596-8.028 1.596zm84.717 8.293c2.82.197 5.85-.112 9.09-.927 3.24-.816 6.629-2.064 10.166-3.745s7.185-3.758 10.945-6.23c3.759-2.472 7.568-5.265 11.427-8.38-3.71 2.373-7.359 4.079-10.945 5.117-3.587 1.038-6.938 1.557-10.055 1.557-3.067 0-5.862-.432-8.384-1.297-2.523-.866-4.712-2.015-6.567-3.449-1.856-1.434-3.302-3.115-4.341-5.043s-1.583-3.98-1.633-6.155c0-6.625.025-13.349.074-20.172.05-6.823.124-13.769.223-20.839 3.562-.198 7.161-.593 10.797-1.187 3.636-.593 7.185-1.471 10.648-2.632 3.462-1.162 6.789-2.658 9.98-4.4871 3.191-1.8293 6.122-4.0788 8.793-6.7486-.94.4449-2.09.8404-3.45 1.1865-1.361.3461-2.832.6304-4.415.8529s-3.228.4079-4.935.5562-3.376.2472-5.009.2966c-3.809.1978-7.84.2472-12.095.1484l-3.599-.0011c-.824-.0034-1.752-.0154-2.782-.036-1.237-.0247-2.498-.0618-3.785-.1113l.297-24.918c-1.039.8405-2.424 1.854-4.155 3.0406-1.484.9888-3.413 2.2001-5.788 3.6339-2.374 1.4338-5.293 3.0159-8.756 4.7463 0 4.944-.371 8.8745-1.113 11.7915s-1.558 5.1666-2.449 6.7482c-1.038 1.83-2.226 3.091-3.561 3.783-1.336.939-2.721 1.878-4.156 2.818-1.236.84-2.609 1.755-4.118 2.744s-3.005 1.953-4.489 2.892c1.83-.939 3.685-1.718 5.565-2.336s3.698-1.112 5.454-1.483 3.388-.631 4.897-.779 2.783-.272 3.822-.371c-.099 6.526-.198 12.237-.297 17.131-.099 4.895-.198 8.999-.297 12.311-.148 3.856-.247 7.194-.297 10.012-.148 5.24.248 9.715 1.188 13.423.939 3.708 2.275 6.748 4.007 9.122 1.731 2.373 3.796 4.153 6.195 5.339 2.4 1.187 5.034 1.879 7.903 2.077zm116.251-.045c1.626.123 2.956.135 3.991.037 1.872-.098 3.942-.516 6.209-1.254 2.266-.737 4.607-1.721 7.021-2.95s4.816-2.692 7.206-4.388c2.39-1.697 4.62-3.577 6.689-5.643-2.217.787-4.361 1.414-6.43 1.881-2.07.467-4.016.701-5.839.701-3.055 0-5.309-.639-6.763-1.918-1.453-1.278-2.427-2.95-2.919-5.015-.493-2.065-.69-4.401-.592-7.007.099-2.606.148-5.261.148-7.965 0-2.655.025-5.384.074-8.187s.123-5.912.222-9.33c.098-3.417.222-7.289.37-11.616.147-4.327.32-9.318.517-14.9721-4.78-.8359-9.042-1.3891-12.787-1.6595-3.744-.2704-6.996-.4057-9.756-.4057-2.66 0-5.568.2951-8.721.8851-3.154.59-6.393 1.4262-9.719 2.5072-3.326 1.082-6.664 2.361-10.015 3.836s-6.516 3.122-9.497 4.941-5.728 3.762-8.241 5.827-4.583 4.204-6.209 6.416c-.887 1.18-1.737 2.68-2.55 4.499-.813 1.82-1.527 3.86-2.143 6.122s-1.121 4.659-1.515 7.191-.592 5.101-.592 7.707c0 3.491.518 7.007 1.553 10.547 1.034 3.54 2.586 6.736 4.656 9.588 2.069 2.852 4.632 5.175 7.687 6.97 3.054 1.795 6.602 2.692 10.643 2.692 3.153 0 6.356-.553 9.608-1.659 3.252-1.107 6.467-2.606 9.645-4.499 3.178-1.894 6.27-4.057 9.276-6.491 3.005-2.434 5.863-4.978 8.573-7.633v8.776c0 2.901.542 5.139 1.626 6.712s2.378 2.729 3.881 3.466c1.503.738 3.067 1.168 4.693 1.291zm-33.083-12.887c-3.387 0-6.394-.801-9.021-2.401-2.626-1.601-4.835-3.683-6.627-6.244s-3.154-5.455-4.087-8.682c-.933-3.226-1.399-6.44-1.399-9.642 0-3.35.38-6.601 1.141-9.753.761-3.153 1.681-5.985 2.762-8.497 1.08-2.513 2.209-4.618 3.387-6.318 1.178-1.699 2.209-2.771 3.093-3.214.491-.295 1.203-.554 2.135-.776.933-.221 2.013-.406 3.24-.554 1.228-.148 2.59-.271 4.087-.369 1.498-.099 3.081-.148 4.75-.148 3.044 0 6.235.16 9.573.48s6.48.875 9.426 1.663c-.049 3.99-.086 7.647-.111 10.972-.024 3.325-.036 6.391-.036 9.199v14.334c-.737 2.808-1.706 5.419-2.909 7.832-1.203 2.414-2.713 4.52-4.529 6.318s-3.952 3.214-6.407 4.248c-2.454 1.035-5.277 1.552-8.468 1.552z"/></svg>